<?xml version="1.0" standalone="no"?>
<!DOCTYPE svg PUBLIC "-//W3C//DTD SVG 20010904//EN"
 "http://www.w3.org/TR/2001/REC-SVG-20010904/DTD/svg10.dtd">
<svg version="1.0" xmlns="http://www.w3.org/2000/svg"
 width="512.000000pt" height="512.000000pt" viewBox="0 0 512.000000 512.000000"
 preserveAspectRatio="xMidYMid meet">
<metadata>
Created by potrace 1.14, written by Peter Selinger 2001-2017
</metadata>
<g transform="translate(0.000000,512.000000) scale(0.100000,-0.100000)"
fill="#000000" stroke="none">
<path d="M1763 4058 c-32 -11 -46 -31 -96 -148 l-24 -56 -204 2 c-139 0 -214
-3 -234 -11 -82 -33 -88 -152 -9 -190 25 -12 67 -15 189 -14 86 0 159 -2 162
-4 4 -4 -59 -158 -157 -382 -9 -22 -36 -87 -60 -143 l-43 -104 -31 7 c-187 39
-350 40 -491 3 -22 -5 -49 -12 -60 -14 -60 -11 -234 -101 -305 -156 -210 -165
-346 -388 -387 -638 -14 -85 -8 -290 11 -375 103 -450 497 -773 951 -778 140
-2 188 4 310 40 329 95 603 384 679 714 24 105 27 129 28 239 1 257 -94 498
-271 684 -45 47 -174 156 -186 156 -3 0 -16 7 -30 16 l-24 15 18 42 c10 23 27
62 38 87 11 25 28 66 38 93 18 48 29 58 38 34 4 -10 100 -150 125 -182 4 -5
68 -98 142 -205 74 -107 154 -222 177 -255 23 -33 81 -118 130 -190 48 -71 91
-132 94 -135 6 -5 148 -211 164 -238 6 -9 13 -19 16 -22 3 -3 34 -47 69 -99
87 -128 82 -126 295 -90 94 16 202 34 240 40 39 6 74 12 78 13 5 0 19 -30 31
-69 26 -78 76 -188 88 -193 4 -2 8 -8 8 -14 0 -13 56 -92 100 -142 43 -49 80
-83 157 -146 57 -48 216 -129 295 -151 24 -7 48 -14 53 -16 76 -24 308 -36
395 -20 14 3 43 8 65 12 41 7 205 65 246 88 13 7 43 25 66 40 24 15 45 27 48
27 19 0 180 160 232 230 84 114 151 271 178 420 13 74 13 281 0 345 -99 488
-511 828 -991 819 -155 -2 -216 -14 -363 -72 -63 -24 -96 -32 -98 -25 -3 7
-19 31 -37 55 -18 24 -59 82 -92 129 -32 47 -80 116 -106 153 -27 37 -48 70
-48 74 0 4 38 104 86 222 l86 215 107 0 c151 1 187 20 196 104 3 31 -2 45 -25
72 l-28 34 -328 -1 c-324 -1 -373 -3 -372 -14 1 -3 -6 -21 -15 -41 -19 -43
-14 -86 16 -117 27 -29 64 -38 149 -37 37 1 68 0 68 -1 0 -5 -39 -103 -55
-139 -7 -16 -24 -57 -37 -90 -13 -33 -28 -68 -34 -78 -10 -17 -46 -18 -680
-18 -368 0 -698 0 -733 1 -49 0 -61 3 -54 13 5 6 16 28 23 47 7 19 23 58 35
85 12 28 35 80 50 117 15 37 31 65 35 63 5 -3 6 3 4 12 -10 44 4 47 208 48
122 0 200 5 213 12 48 27 67 119 34 159 -32 39 -70 44 -301 43 -123 -1 -237
-6 -255 -11z m1327 -806 c0 -4 -89 -232 -100 -257 -5 -11 -21 -49 -36 -85 -14
-36 -32 -78 -39 -95 -7 -16 -41 -101 -75 -187 -34 -87 -66 -155 -71 -152 -5 3
-6 -1 -4 -9 3 -7 -28 -96 -69 -198 -57 -140 -76 -179 -82 -164 -4 11 -11 22
-14 25 -4 3 -69 95 -145 205 -76 110 -185 267 -242 348 -57 82 -103 153 -103
157 0 5 -4 10 -8 12 -4 2 -37 46 -72 98 -36 52 -67 97 -70 100 -18 17 -93 135
-93 146 0 7 -4 11 -8 9 -4 -3 -14 6 -23 19 -15 23 -15 25 7 28 27 4 1247 4
1247 0z m290 -288 l102 -146 -65 -67 c-127 -129 -204 -260 -253 -430 -24 -82
-40 -194 -37 -259 1 -25 -4 -33 -21 -37 -32 -7 -147 -26 -185 -31 -19 -3 -51
-8 -72 -13 -22 -5 -39 -7 -39 -5 0 4 95 245 117 294 8 19 19 44 23 55 45 112
94 236 105 260 7 17 39 95 70 175 32 80 65 163 75 185 9 22 28 68 41 103 13
34 27 62 31 62 3 0 52 -66 108 -146z m-2210 -149 c16 -4 30 -8 30 -10 0 -9
-54 -131 -62 -139 -4 -6 -8 -16 -8 -23 0 -7 -11 -36 -24 -65 -14 -29 -68 -156
-121 -282 -101 -238 -108 -271 -73 -313 20 -25 77 -45 108 -38 57 12 52 4 246
465 70 168 129 306 130 308 6 9 96 -58 150 -112 163 -164 236 -347 229 -575
-3 -133 -5 -144 -45 -254 -50 -134 -147 -266 -263 -352 -311 -234 -748 -204
-1021 71 -199 201 -276 478 -206 748 21 82 80 211 112 246 10 10 18 23 18 27
1 23 200 203 225 203 5 0 16 6 24 13 23 20 128 62 187 76 111 26 260 29 364 6z
m3125 -1 c76 -20 155 -49 155 -56 0 -4 7 -8 15 -8 25 0 146 -85 209 -147 307
-301 307 -806 0 -1108 -276 -271 -692 -304 -1010 -79 -132 93 -266 281 -289
407 l-7 33 79 13 c43 7 92 14 108 16 17 3 53 9 80 15 28 5 65 12 83 15 65 10
99 16 177 30 101 18 127 23 184 31 71 10 115 32 135 65 24 41 16 84 -26 145
-19 27 -82 117 -139 199 -58 83 -121 173 -140 200 -20 28 -51 73 -70 100 -19
28 -38 53 -44 57 -17 12 5 25 89 53 116 39 305 48 411 19z m-514 -420 c82
-117 149 -216 149 -221 0 -5 -10 -9 -22 -10 -13 0 -61 -8 -108 -16 -47 -9
-101 -18 -120 -21 -19 -3 -46 -8 -60 -11 -14 -3 -36 -7 -50 -9 -14 -3 -45 -8
-70 -12 -25 -4 -52 -8 -60 -10 -8 -1 -35 -5 -59 -9 l-43 -7 6 59 c6 59 26 145
44 193 5 14 10 28 11 32 3 17 66 126 94 163 17 22 49 59 71 83 38 40 42 41 54
25 7 -10 81 -113 163 -229z"/>
</g>
</svg>
